<?xml version="1.0" encoding="utf-8"?>
<!-- Generator: Adobe Illustrator 21.0.0, SVG Export Plug-In . SVG Version: 6.00 Build 0)  -->
<svg version="1.1" xmlns="http://www.w3.org/2000/svg" xmlns:xlink="http://www.w3.org/1999/xlink" x="0px" y="0px"
	 viewBox="0 0 765.8 183.7" style="enable-background:new 0 0 765.8 183.7;" xml:space="preserve">
<style type="text/css">
	.st0{display:none;}
	.st1{display:inline;}
	.st2{display:inline;fill:#FF0000;}
</style>
<g id="Capa_2" class="st0">
	<path class="st1" d="M113.7,31.3c-22.1,4-90,13.4-114.4,8.1c4.5,13.7,14.5,19.3,26.6,19.4c16,0.1,82.6-11.4,102.2-17.2
		C130.3,41,117.3,30.6,113.7,31.3z"/>
	<path class="st1" d="M651.9,60.3c22.1,4,90,13.4,114.4,8.1c-4.5,13.7-14.5,19.3-26.6,19.4c-16,0.1-78.6-10.3-98.2-16
		C639.3,71.1,648.2,59.6,651.9,60.3z"/>
	<path class="st1" d="M198.2,23.2c-5.7,7.9-12.9,20.2-8.4,37.8c1,3.8,3.4,5.5,4.7,4.1c3.1-3.5,18.3-24,24-33
		C225.9,20.3,200.7,19.7,198.2,23.2z"/>
	<path class="st1" d="M621.2,22.2c-7,6.8-12.9,20.2-8.4,37.8c1,3.8,3.4,5.5,4.7,4.1c3.1-3.5,18-24.1,24-33
		C648,21.5,628.3,15.3,621.2,22.2z"/>
	<path class="st1" d="M110.4,33.6c-7.3,11.5-31.4,51.9-41.3,77.5s-2.1,35.3,18.2,37.9c-0.6-7-0.6-25.8,12.1-55.4
		c11.5-26.8,29.2-50.3,28.7-52C127.5,39.9,112.2,30.9,110.4,33.6z"/>
	<path class="st1" d="M194.4,41.6c-20.5,5.5-48.3,19.8-71.6,32.1c-14.2,7.5-15.2,8.9-6.9,19c5.1,6.2,55.7,65.1,125.5,64.5
		c-4.9,18.4-29.7,37.9-74.8,8.4C117.1,133.2,93.9,92,92.1,85.4c-1.8-6.6,8.7-14.5,16.5-19.8c20.6-14,73.8-44.3,94.9-44.3
		C209.1,21,205.1,38.8,194.4,41.6z"/>
	<path class="st1" d="M422.5,89.4c0,0-35.1,5.7-65.9,33.3c-29.9,26.7-26.6,52.6-8,59.5c16.4,6.1,40.6-6.8,45.5-33.1
		c6-32.4-5.9-71.3,19.8-95.9c2.7-2.6,13.4-15.1-7-7.4c-9.5,3.6-25.6,14.3-31.5,55.9c-4.8,33.6-8.2,67.1-23,64.7
		c-12.6-2-1.6-33.3,22.3-48.7c23.4-15.1,44.3-21.5,44.3-21.5L422.5,89.4z"/>
	<path class="st1" d="M365.7,83.7c15.9-20.3,33.9-39.7,49.8-40.4c4-0.5,1.1,4.3-2,6.5c-3.1,2.2-15.8,10.2-32.3,28
		C363.4,96.9,349.9,103.9,365.7,83.7z"/>
	<path class="st1" d="M265,21c6.4-13.9-16-12.9-23.6-3.4l-20.6,53.2c0,0-11,16.5-15.1,20.7c-9.9,10.1-26.2,25.5-31.4,24.8
		c-5.2-0.6,4.4-16.8,14.8-38.3c2.6-5.3-15.9-15.6-20.5-8.9c-28.2,41.7-14.7,60.5-1.1,60.4c16.4,0,42.7-28.7,54.5-41
		c13.3-13.8,21.9-28.4,31.4-44.5S262.3,26.8,265,21z"/>
	<path class="st1" d="M278.3,19.6c-17.3,19.6-30.9,43.6-36.2,56c-12.7,29.7-18.3,61.9-4.7,61.9c16.4,0,32.7-39,52.4-55
		c3.6-2.9,9-16.1,9-16.1c-15.2,11.9-47.4,54.6-53.9,53.8c-8.8-1,14.2-51.8,27.1-69.7c12.6-17.2,22.5-32.6,22.5-32.6L278.3,19.6z"/>
	<path class="st1" d="M278.3,19.6l-30.7,67.2l-4.1,8.6c0,0-0.5-5.1-0.8-4.3c-7.7,8.4-28.1,34.8-35,33.9c-8.8-1,13.3-56.5,26.3-74.4
		c12.6-17.2,22.5-32.6,22.5-32.6l-15.2-0.5c-17.3,19.6-31.9,45.6-37.2,58c-12.7,29.7-18.3,63.9-4.7,63.9c16.4,0,40.6-29.5,51.5-42
		C271.3,74.2,294,37.4,303,21C308.3,11.2,288.4,7.4,278.3,19.6z"/>
	<path class="st1" d="M450.7,3.6c11.5-8.4,25.2-0.3,21.9,4.9c-15.5,24.2-29.6,46.5-41.6,74.4s-12.8,35.4-6.7,27.5
		c6.2-7.9,41-58.7,41-58.7l-2.8,12.7c0,0-37.3,67.1-50.9,68.6c-11.4,1.3-7.7-19-1.7-37.1S435.7,14.5,450.7,3.6z"/>
	<path class="st1" d="M465.3,49.7c1.2,12.2-50.2,78.4-19.7,78.4c11.7-0.1,29.6-23.5,46.7-50.9c10.7-16.4,5.3-18.5,5.3-18.5
		s-30.7,47.7-40.3,51c-8.7,3,14.2-38.6,23.5-52.6C483.2,52.7,464.4,41.4,465.3,49.7z"/>
	<path class="st1" d="M500.1,54c0.4,2.3-50.7,70.7-22.5,71.3c9.5,0,36.7-33.2,51.7-45.4c13-9.1,1.2-7.9-5.6-2.5
		c-9.1,7.2-16.6,15.9-34.4,31.2c-6.9,5.9,2.9-15.2,25.6-46.7C517.3,57.7,499.1,48.9,500.1,54z"/>
	<path class="st1" d="M543.3,84.8c2.4-1.5,4.9,1.1,6.3,5.6c2.1,6.9,6.1,2.4,6.1-5.7s-3.7-19.2-13.6-17.5c-9.9,1.8-23.4,10.5-38,36.1
		c-11.6,20.4-4,32.6,3.8,36.3c10.4,5,12.9,4.6,39.3-30.5c23.8-31.6,49-67.2,68.9-92.2c5.4-6.8-15.5-15.6-26.3-3.7
		c-12.9,14.2-25.8,38.7-42.3,83c-16.8,44.9-5.5,43.1-3.8,43.3s16.1-15.3,9.5-15.9c-7.9-0.8,13-53.3,28.3-80.5
		c10.8-19.2-51.2,78.2-60.5,82C516.1,127.1,525.6,95.9,543.3,84.8z"/>
	<path class="st1" d="M547.3,124.3c0,0-2.3,9,9.7-5s29.8-44,37.1-51.8c4.3-4.6,24.1,5.3,20.4,10.9c-3.7,5.7-25.5,48.2-17.9,43.5
		c7.7-4.7,26-33.4,31.3-41.1c4.3-5,7.6-2.5,4.9,2.8c-2.7,5.3-30.8,55-45.9,53.7c-12-1-15.7-13.9-5.7-35.2
		c-22.6,27.1-33.4,39-37.8,37.4C539.1,138,545.4,121.8,547.3,124.3z"/>
	<path class="st1" d="M631.9,74.6c1.1-1.5,18.1,4.2,15.1,9.1c-3,5-20.8,41.9-15.7,44.4c3.3,1.6,30.6-30.2,22.5-53.5
		c-1.8-3.3-11.2-2.6-11.2-2.6s-12.8-1.3-0.8-14.4c4.6-5,23.2-8.8,29.4,16.4c8,32.6-13.2,63.3-38.5,64.6
		C607.3,140,618.9,92.1,631.9,74.6z"/>
	<path class="st1" d="M556.4,48.5c0,0,12.5-21.4-0.3-29.6c-13-8.3-55.9-13.2-113.2-3.2c-57.5,10-107.3,13.7-130,6.7
		c-5.4,17.8,8.7,26,22,26c24.1,0.1,47.7-8.9,114.4-17.3C514.4,23,548.7,37.3,556.4,48.5z"/>
	<g class="st1">
		<path d="M338.1,70.3c-20,0-62.4,52.9-49.1,50c4.7-1,34.3-32.1,33.7-34.1c-1.1-3.4,12.1-0.5,12.1,12S322,124,327.5,124
			c5.3,0,26.5-26.6,44.5-48.2c2.9-3.5,13.8-3,9.2,1.9c-23.8,25.4-46.3,59.8-61.9,59.8c-7,0-13.9-10.6-13.9-14.9
			c0-4.1,2.9-10.4,2.9-10.4s-21.5,25.3-27.9,25.3c-6.2,0-16.1-7.9-16.1-20c0-19.8,41.6-65.3,60.7-65.3
			C335.2,52.2,341.9,70.3,338.1,70.3z"/>
	</g>
</g>
<g id="Capa_2_copia">
	<g>
		<path d="M666.5,62.6c-8.1-12.3-20.5-12-26.2-6.9c-9.1,8.1-5,14.3,1.2,16.1c3.1,0.9,7.4,2,12.3,3.1c7.8,23.2-19.2,54.8-22.5,53.2
			c-5-2.5,10.6-35.6,15.7-44.4c2.9-5-14.8-13.3-15.1-9.1c-0.3,3.4-23.4,41.7-35.2,47.4c-8.1,3.9,13.8-34.3,16.2-40.7
			c4.5-11.8-19.1-19.8-17.5-13.8c2,7.4-35.9,51.2-42.4,56.2c-3,2.3,3.5-23.7,11.4-40.2C584.8,56,599.1,38.2,616,17
			c5.4-6.8-15.5-15.6-26.3-3.7c-10.9,12-19.3,25.6-32.5,58.2c-1.7-6.1-13.9-21.5-35.9,2.8c-8.9,9.9-21.2,29.3-32.3,36.1
			c-7.8,4.8,2.2-11.6,24.6-44.8c4.9-7.3-17.9-19.5-16.7-12.5c0.7,3.9-18.7,37.9-31.7,51.4c-3,3.2-6,4.8-7.9,5
			c-9.1,1.3,14.8-36.3,22.8-51c4.3-8-19.2-17.6-18.1-11.6c0.5,2.6-13.3,30.3-25.8,48.3c-5.3,7.5-10.1,12.9-11.8,15.1
			c-6.2,7.9-5.3,0.5,6.7-27.5c8.4-19.5,17.8-36.2,27.9-52.7c54.5-5.3,85.4,4.8,95.5,15.9c1.4,1.5,2.3,2.2,3.5-0.5
			c2.7-6.2,8.1-20.3-1.8-26.7c-10.8-6.9-42.4-11.4-85.8-7c0.7-1.2,1.5-2.3,2.2-3.5c3.3-5.1-10.4-13.3-21.9-4.9
			c-3.1,2.2-6.3,6.7-9.6,12.4c-54.8,9.4-96.2,14.4-125.1,7.3c-1.7-0.4-3.1-1.5-3.7,1.5c-3.1,16.3,9.9,23.7,22.6,23.8
			c21.9,0.1,43.5-7.3,97.5-15c-9,20.5-17.2,45.8-21.4,58.8c-4.1,1.2-9,3-14.5,5.3c1-16.6,5.1-31.7,17.2-44.4c8-8.5,3.5-10.9-4.1-8.6
			c-16.3,4.9-29.1,21.2-37.7,31.4c-12,14.1-29.4,37.3-37.9,45.5c-2.8,2.7-5.2,4.1-6.7,3.5c-2.3-0.9-1.1-3.6,1-7.8
			c2.6-5,6.4-12.1,6.4-18.9c0-12.5-13.2-15.4-12.1-12c0.6,2-29,33.1-33.7,34.1c-13.3,2.9,29.1-50,49.1-50c3.8,0-2.9-18.1-13-18.1
			c-6.9,0-16.6,5.9-26.3,14.3c-15.2,11.9-47.4,54.6-53.9,53.8c-3.2-0.4-2.2-7.4,1-17c31.8-34.4,47.4-62.8,56.4-79.2
			c5.3-9.8-13.8-12-23.8-1.5c-20.2,21.3-38.9,58.6-48.6,88.6c-14.1,16.6-22.1,16.4-23,13.6c-0.8-2.6-1.6-10.9,3.6-24.5
			c25.8-26,50.1-71.7,52.8-77.5c6.4-13.9-15.3-12.3-23.6-3.4C226,33.8,206.6,67,193,108c-11.4,11.6-18.4,12.2-20.5,9
			c-2.8-4.4,3.7-13,14.1-34.4c4.9-10.2-18.8-19.4-17-14.1c0.4,1.3-2.2,5.8-3.7,8.3c-21.7,36.5-11.3,52.9,1.5,52.9
			c7,0,15.9-5.3,24.7-12.4c-1.6,13.1,0.2,22.4,7.3,22.4c8.9,0,20.1-8.7,30.2-18.7c-0.6,10,1.6,16.7,7.8,16.7
			c9.1,0,18.2-12.1,27.9-25.5c-0.6,2-0.9,3.8-0.9,5.5c0,12.1,9.9,20,16.1,20c6.3,0,27.9-25.3,27.9-25.3s-2.9,6.3-2.9,10.4
			c0,4.3,6.8,14.9,13.9,14.9c5.8,0,12.5-4.7,19.9-12c12.3-12.1,26.5-31.1,41.2-46.9c-2.1,6.4-3.8,14-5.1,23
			c-0.4,2.6-0.7,5.1-1.1,7.7c-5.8,3.7-11.8,8.2-17.6,13.3c-29.9,26.7-26.6,52.6-8,59.5c16.4,6.1,40.6-6.8,45.5-33.1
			c2.6-13.9,1.9-29,2.2-43.7c4.7-2.3,8.9-4.1,12.4-5.5c-5.1,17-7.6,34.4,3,33.2c6.8-0.8,19.7-18.2,30.8-35.3
			c-7.5,16.3-10.8,30.3,3.2,30.3c6.7-0.1,15.5-7.8,24.9-19.6c-2.8,9.6-1.9,16.6,7.1,16.7c5,0,14.4-7.1,24.8-17.6
			c-9.8,19-2,28.4,5.5,32c9.4,4.5,12.3,4.6,32.4-21.5c-5.6,22.5,1.8,21.6,3.3,21.5c6.8-0.6,15.2-10.3,37.8-37.4
			c-10,21.3-6.3,34.1,5.7,35.2c8.7,0.7,21.5-13.4,31.5-28.4c-3.2,16.8-0.6,29.5,14.2,29.6c25,0.2,44.5-29.2,39.4-60.1
			c25.5,4.8,57,9.4,67.6,9.3c11.1-0.1,20.3-4.2,25.3-16c1.1-2.7,1.5-3.4-2.1-2.8C739.6,73,692.5,66.8,666.5,62.6z M352.2,166.4
			c-12.3-2-2.1-31.8,20.6-47.6C369,145.7,364.5,168.3,352.2,166.4z M520.8,125.2c-4.7,1.9,7.3-35.2,25-46.3c2.2-1.3,4.5,0.7,5.9,4.4
			C539.1,101.4,524.5,123.7,520.8,125.2z"/>
		<path d="M615.8,61c1,3.8,3.4,5.5,4.7,4.1c3.1-3.5,18-24.1,24-33c6.5-9.7-13.1-15.9-20.3-9C617.2,30,611.3,43.4,615.8,61z"/>
		<path d="M116,92.8c-8.3-10.1-7.4-11.5,6.9-19c21.3-11.3,46.4-24.2,66.2-30.5c-0.9,5.2-0.9,11.1,0.8,17.8c1,3.8,3.4,5.5,4.7,4.1
			c3.1-3.5,18.3-24,24-33c7-11.1-8.4-11.3-15-10.8C182.3,22.8,141.2,45,117,60.1c6.4-10.5,9.2-15.3,11-18.5
			c2.5-4.4-7.3-11.6-14.4-10.4C92.4,35,28.9,43.9,2.3,39.9c-1.1-0.2-3.2-0.4-2,2.4c5.1,11.5,14.3,16.4,25.5,16.5
			c11.4,0.1,48.6-5.8,76-11.2C91.6,65,76.5,92.1,69.1,111.1c-9.6,25-2.5,34.6,16.5,37.7c1.4,0.2,1.7-0.3,1.5-1.4
			c-1-7.6,0.3-24.8,10.8-50.5c9.8,16,31.2,46.1,68.7,68.8c47.5,28.7,74.8,10,83.5-6.5c1.4-2.6,1.3-4-2.7-3.9
			C168.5,156.5,121,98.9,116,92.8z"/>
	</g>
</g>
<g id="Capa_3" class="st0">
	<circle class="st2" cx="304.6" cy="111.5" r="3.3"/>
	<circle class="st2" cx="262.6" cy="109.5" r="3.3"/>
	<circle class="st2" cx="226.6" cy="119.5" r="3.3"/>
	<circle class="st2" cx="189.4" cy="115.2" r="3.3"/>
	<circle class="st2" cx="337.6" cy="122.5" r="3.3"/>
	<circle class="st2" cx="405.6" cy="97.5" r="3.3"/>
	<circle class="st2" cx="439" cy="96.8" r="3.3"/>
	<circle class="st2" cx="467.8" cy="106.6" r="3.3"/>
	<circle class="st2" cx="500.1" cy="105.2" r="3.3"/>
	<circle class="st2" cx="578.4" cy="100.4" r="3.3"/>
	<circle class="st2" cx="615.7" cy="107.3" r="3.3"/>
</g>
</svg>
