<?xml version="1.0" encoding="utf-8"?>
<!-- Generator: Adobe Illustrator 21.0.0, SVG Export Plug-In . SVG Version: 6.00 Build 0)  -->
<svg version="1.1" id="Capa_1" xmlns="http://www.w3.org/2000/svg" xmlns:xlink="http://www.w3.org/1999/xlink" x="0px" y="0px"
	 viewBox="0 0 40 40" style="enable-background:new 0 0 40 40;" xml:space="preserve">
<style type="text/css">
	.st0{fill:none;stroke:#F7931E;stroke-width:2;stroke-linecap:round;stroke-linejoin:round;stroke-miterlimit:10;}
</style>
<path class="st0" d="M10,4.1h20v15.5c0,4.9-4.5,8.9-10,8.9h0c-5.5,0-10-4-10-8.9V4.1L10,4.1z M20,28.5v7 M10.9,35.9h18.3 M9.7,6.6
	H3.4c1.4,3.7,3.6,6.1,6.3,7.5 M30.3,6.6h6.3c-1.4,3.7-3.6,6.1-6.3,7.5 M20,8.1l1.9,4.4l4.6,0.3L22.9,16l1.1,4.5L19.9,18L16,20.5
	l1.1-4.7l-3.6-3l4.8-0.4L20,8.1L20,8.1z"/>
</svg>
