<?xml version="1.0" encoding="utf-8"?>
<!-- Generator: Adobe Illustrator 21.0.0, SVG Export Plug-In . SVG Version: 6.00 Build 0)  -->
<svg version="1.1" id="Capa_1" xmlns="http://www.w3.org/2000/svg" xmlns:xlink="http://www.w3.org/1999/xlink" x="0px" y="0px"
	 viewBox="0 0 40 40" style="enable-background:new 0 0 40 40;" xml:space="preserve">
<style type="text/css">
	.st0{fill:none;stroke:#F7931E;stroke-width:2;stroke-linecap:round;stroke-linejoin:round;stroke-miterlimit:10;}
</style>
<path class="st0" d="M33.6,35.4c0.2-1.6,0.4-5.5-1.9-7.5c-2.1-1.9-4.9-1.8-6.8-3.4c-1.9-1.7-2.2-3.7-0.7-6c1.2-1.8,2.1-4.5,2.1-6.8
	c0-3.8-2.7-6.9-6.2-6.9c-3.6,0-6.2,3.1-6.2,6.9c0,2.3,0.9,5,2.1,6.8c1.5,2.3,1.2,4.3-0.7,6c-1.8,1.6-4.7,1.6-6.8,3.4
	c-2.3,2-2.1,6-1.9,7.5 M15,7.2c-0.6-0.3-1.3-0.5-2-0.5c-2.7,0-4.8,2.4-4.8,5.4c0,1.8,0.7,3.9,1.6,5.3c1.1,1.8,0.9,2.9-0.5,4.2
	c-1.4,1.3-2.8,0.9-4.4,2.3c-1.7,1.6-2.4,4.3-2.8,6.7 M37.9,30.6c-0.4-2.3-1.1-5.1-2.8-6.7c-1.6-1.5-3-1.1-4.4-2.3
	c-1.4-1.3-1.7-2.4-0.5-4.2c0.9-1.4,1.6-3.5,1.6-5.3c0-3-2.1-5.4-4.8-5.4c-0.7,0-1.4,0.2-2,0.5"/>
</svg>
