<?xml version="1.0" encoding="utf-8"?>
<!-- Generator: Adobe Illustrator 21.0.0, SVG Export Plug-In . SVG Version: 6.00 Build 0)  -->
<svg version="1.1" id="Capa_1" xmlns="http://www.w3.org/2000/svg" xmlns:xlink="http://www.w3.org/1999/xlink" x="0px" y="0px"
	 viewBox="0 0 100 100" style="enable-background:new 0 0 100 100;" xml:space="preserve">
<style type="text/css">
	.st0{fill:url(#SVGID_1_);}
	.st1{fill:url(#SVGID_2_);}
	.st2{fill:#FFFFFF;}
</style>
<g>
	<linearGradient id="SVGID_1_" gradientUnits="userSpaceOnUse" x1="50.7241" y1="89.6858" x2="50.7241" y2="7.7988">
		<stop  offset="0" style="stop-color:#5AAF36"/>
		<stop  offset="0.5" style="stop-color:#169639"/>
		<stop  offset="1" style="stop-color:#5AAF36"/>
	</linearGradient>
	<path class="st0" d="M50.7,7.8C28.1,7.8,9.8,26.1,9.8,48.7c0,13.2,8,24.3,8,24.3l-5,14.9l15.4-5c0,0,10,6.8,22.6,6.8
		c22.6,0,40.9-18.3,40.9-40.9C91.7,26.1,73.3,7.8,50.7,7.8z"/>
	<linearGradient id="SVGID_2_" gradientUnits="userSpaceOnUse" x1="15.1672" y1="15.1939" x2="69.11" y2="95.3082">
		<stop  offset="0" style="stop-color:#FFFFFF"/>
		<stop  offset="1" style="stop-color:#E6E6E6"/>
	</linearGradient>
	<path class="st1" d="M50.7,0C23.8,0,2,21.8,2,48.7C2,62.1,9.1,74,9.1,74l-8.5,26l26.7-8.5c0,0,9.9,6,23.5,6
		c26.9,0,48.7-21.8,48.7-48.7C99.5,21.8,77.6,0,50.7,0z M50.7,89.7c-12.5,0-22.6-6.8-22.6-6.8l-15.4,5l5-14.9c0,0-8-11-8-24.3
		c0-22.6,18.3-40.9,40.9-40.9c22.6,0,40.9,18.3,40.9,40.9C91.7,71.4,73.3,89.7,50.7,89.7z"/>
	<path class="st2" d="M32.2,27.5c0,0,1.3-0.8,2-0.8c0.7,0,3.8,0,3.8,0s1,0.2,1.5,1.3c0.5,1.1,3.7,8.7,4,9.3s0.9,2-0.1,3.3
		c-1,1.3-3.1,3.7-3.1,3.7s-0.8,0.8-0.1,1.9c0.7,1.2,3.3,5.1,6.6,8.1c3.3,3,7.4,5.2,9.4,5.8c2,0.7,2.5-0.2,3.3-1.2
		c0.8-1,3.2-4.1,3.2-4.1s0.8-1.2,2.5-0.5c1.6,0.8,9.6,4.6,9.6,4.6s1,0.2,1,1.3c0.1,1.1,0.7,4.3-2.2,7.5c-2.9,3.1-9.1,4.6-12,3.8
		c-2.9-0.8-12.6-3.3-18.8-9.2s-11.4-12-13.5-16.6c-2.1-4.5-2-7.2-1.9-8.5S28.2,30,32.2,27.5z"/>
</g>
</svg>
